<svg
  class="w-6 h-6 text-tertiary dark:text-tertiary-dark"
  width="24"
  height="24"
  viewBox="0 0 72 72"
  aria-hidden="true"
  fill="currentColor"
  xmlns="http://www.w3.org/2000/svg"
>
  <path
    fill-rule="evenodd"
    clip-rule="evenodd"
    d="M27.4865 9C25.8297 9 24.4865 10.3431 24.4865 12C24.4865 13.6569 25.8297 15 27.4865 15V31.1087C27.4865 32.3397 27.1078 33.5409 26.4019 34.5494L13.095 53.5592C10.3114 57.5359 13.1563 63 18.0104 63H54.9626C59.8167 63 62.6616 57.5359 59.878 53.5592L46.5711 34.5494C45.8652 33.5409 45.4865 32.3397 45.4865 31.1087V15C47.1434 15 48.4865 13.6569 48.4865 12C48.4865 10.3431 47.1434 9 45.4865 9H27.4865ZM39.4865 31.1087V15H33.4865V31.1087C33.4865 33.5707 32.7292 35.9732 31.3173 37.9902L28.5104 42H44.4626L41.6557 37.9902C40.2438 35.9732 39.4865 33.5707 39.4865 31.1087ZM18.0104 57L24.3104 48H48.6626L54.9626 57H18.0104Z"
    fill="currentColor"
  ></path>
</svg>
