<?xml version="1.0" encoding="UTF-8"?>
<svg class="text-tertiary me-1 opacity-60" width="12" height="12" viewBox="0 0 44 44" fill="none" xmlns="http://www.w3.org/2000/svg">
  <path fill-rule="evenodd" clip-rule="evenodd" d="M22 4C17.0294 4 13 8.0294 13 13V16H12.3103C10.5296 16 8.8601 16.8343 8.2855 18.5198C7.6489 20.387 7 23.4148 7 28C7 32.5852 7.6489 35.613 8.2855 37.4802C8.8601 39.1657 10.5296 40 12.3102 40H31.6897C33.4704 40 35.1399 39.1657 35.7145 37.4802C36.3511 35.613 37 32.5852 37 28C37 23.4148 36.3511 20.387 35.7145 18.5198C35.1399 16.8343 33.4704 16 31.6897 16H31V13C31 8.0294 26.9706 4 22 4ZM25 16V13C25 11.3431 23.6569 10 22 10C20.3431 10 19 11.3431 19 13V16H25Z" fill="currentColor"></path>
</svg>