<?xml version="1.0" encoding="UTF-8"?><svg id="_レイヤー_2" xmlns="http://www.w3.org/2000/svg" viewBox="0 0 16265.92 2753.29"><defs><style>.cls-1{fill:#888989;}.cls-1,.cls-2,.cls-3,.cls-4,.cls-5{stroke-width:0px;}.cls-2{fill:#b4b5b5;}.cls-3{fill:#f29600;}.cls-4{fill:#009fe8;}.cls-5{fill:#036eb7;}</style></defs><g id="_レイヤー_1-2"><path class="cls-2" d="m757.61,1654.15l852.31-554.68v-500.56h-162.35L0,1545.92v148.82h811.73l-54.12-27.06v-13.53Z"/><path class="cls-1" d="m0,1775.91l1474.63,933.48h162.35v-500.56l-811.73-514.09H13.53l-13.53,81.17Z"/><path class="cls-1" d="m14615.3,2207.73v508.94h165.06l1485.56-949.11v-96.29h-784.04l-866.58,536.45Z"/><path class="cls-2" d="m14780.36,597.55h-165.06v508.94l880.33,550.21v13.76h-13.75,784.04v-123.8l-1485.56-949.11Z"/><path class="cls-5" d="m10155.61,1451.76c-77.71,127.59-119.5,274.71-119.5,430.1,0,526.91,441.79,871.42,1078.13,871.42,291.82,0,559.33-81.06,725.51-166.18,56.74-28.37,72.96-64.85,72.96-97.27,0-16.21-8.1-48.64-20.26-93.22l-56.74-202.66c-12.16-40.53-44.58-68.91-97.28-68.91-32.42,0-64.85,8.11-109.43,20.27-109.44,32.43-316.14,89.17-514.75,89.17-226.98,0-364.78-52.69-389.1-186.44h1236.21s32.42-133.76,32.42-271.56c0-115.06-26.14-225.38-77.11-324.72h-1761.05Zm573.58,231.5c28.37-137.81,166.18-210.76,316.14-210.76,178.34,0,263.45,72.96,267.51,210.76h-583.66Z"/><path class="cls-4" d="m11919.47,1451.05c-132.19-257.63-431.88-441.32-879.42-441.32-411.48,0-722.18,179.54-881.63,441.32h1761.05Z"/><path class="cls-5" d="m7973.16,1451.76v1192.09c0,24.32,44.58,68.91,68.91,68.91h543.12c24.31,0,68.9-44.58,68.9-68.91v-1192.09h-680.92Z"/><path class="cls-4" d="m8656.9,1451.05V105.88c0-24.32-44.58-68.9-68.9-68.9h-543.12c-24.32,0-68.91,44.58-68.91,68.9v1345.17h680.92Z"/><path class="cls-5" d="m9018.82,1451.76v1192.09c0,24.32,44.58,68.91,68.91,68.91h543.12c24.31,0,68.9-44.58,68.9-68.91v-1192.09h-680.92Z"/><path class="cls-4" d="m9702.56,1451.05V105.88c0-24.32-44.58-68.9-68.9-68.9h-543.12c-24.32,0-68.91,44.58-68.91,68.9v1345.17h680.92Z"/><path class="cls-5" d="m12403.57,1451.76c-65.75,126.04-101.85,272.4-101.85,430.1,0,522.86,381,871.42,826.84,871.42,226.97,0,393.15-81.06,514.74-190.5h8.11l44.58,85.12c20.26,40.53,48.63,64.85,81.07,64.85h401.25c24.32,0,68.91-44.58,68.91-68.91v-1192.09h-1843.66Zm1162.73,616.55c-64.85,68.91-174.28,117.54-283.72,117.54-162.12,0-299.93-113.49-299.93-303.99,0-166.18,121.6-303.98,303.98-303.98,109.44,0,231.04,60.8,279.67,129.7v360.73Z"/><path class="cls-4" d="m14250.04,1451.05V105.88c0-24.32-44.58-68.9-68.91-68.9h-543.11c-24.32,0-68.91,44.58-68.91,68.9v1001.12h-16.21c-77.02-56.74-243.19-97.27-393.15-97.27-343.73,0-614.65,175.4-753.37,441.32h1843.66Z"/><path class="cls-5" d="m6076.39,1752.16l252.09-300.4h-847.42l-65.33,77.48c-52.68,60.8-97.28,133.75-97.28,133.75h-16.21v-211.23h-680.92v1192.09c0,24.32,44.58,68.91,68.91,68.91h543.12c24.31,0,68.9-44.58,68.9-68.91v-133.75l263.46-312.09h4.05l279.66,441.79c28.37,44.58,68.91,72.96,133.76,72.96h620.13c44.58,0,56.74-20.27,56.74-40.53,0-16.21-8.11-32.42-24.32-56.74l-559.33-863.32Z"/><path class="cls-4" d="m5305.06,1451.05V105.88c0-24.32-44.58-68.9-68.9-68.9h-543.12c-24.32,0-68.91,44.58-68.91,68.9v1345.17h680.92Z"/><path class="cls-5" d="m4089.52,1451.76H2025.2c127.49,168.74,360.04,267.96,674.97,296.35l603.92,56.74c190.5,20.27,247.24,89.17,247.24,154.02,0,117.54-121.59,210.76-458.01,210.76-255.34,0-376.94-64.85-441.79-206.71-20.27-44.58-48.64-68.91-101.33-68.91h-530.96c-52.69,0-97.28,44.58-97.28,97.28v32.42c0,401.26,429.63,729.56,1171.35,729.56,810.63,0,1187.57-405.31,1187.57-839,0-180.07-56.87-340.49-191.37-462.53Z"/><path class="cls-4" d="m4092.34,1451.05c-131.91-119.69-338.5-202.46-639.52-230.56l-595.81-56.74c-162.13-16.21-210.77-68.91-210.77-137.81,0-109.43,145.91-202.66,409.36-202.66,214.82,0,328.31,81.06,368.84,166.18,20.26,40.53,44.58,52.69,85.12,52.69h551.22c52.69,0,93.23-40.53,93.23-93.22,0-360.73-344.52-709.3-1098.41-709.3s-1138.93,380.99-1138.93,855.21c0,141.28,38.66,260,111.34,356.21h2064.33Z"/><path class="cls-4" d="m6331.3,1451.05l234.29-279.19c24.32-28.37,36.47-52.69,36.47-77.01,0-20.26-20.26-44.58-48.63-44.58h-628.24c-81.06,0-121.59,20.27-158.07,64.85l-283.24,335.94h847.42Z"/><path class="cls-3" d="m7297.13,661.52c239.97,0,375.97-155.38,375.97-332.97S7537.1,0,7297.13,0s-375.98,150.95-375.98,328.55,135.99,332.97,375.98,332.97Z"/><path class="cls-5" d="m6961.14,2632.74c0,26.64,44,75.47,68,75.47h535.97c24.01,0,68.01-48.83,68.01-75.47v-1052.07l-671.98,1.44v1050.63Z"/><path class="cls-4" d="m7565.1,887.94h-535.97c-24,0-68,48.83-68,75.47v618.7l671.98-1.44v-617.26c0-26.64-44-75.47-68.01-75.47Z"/></g></svg>